<svg width="400" height="400" viewBox="0 0 400 400" fill="none" xmlns="http://www.w3.org/2000/svg">
<rect width="400" height="400" fill="white"/>
<path d="M325 335C327.761 335 330 337.239 330 340C330 342.761 327.761 345 325 345H75C72.2386 345 70 342.761 70 340C70 337.239 72.2386 335 75 335H325ZM325 265C327.761 265 330 267.239 330 270C330 272.761 327.761 275 325 275H75C72.2386 275 70 272.761 70 270C70 267.239 72.2386 265 75 265H325ZM325 195C327.761 195 330 197.239 330 200C330 202.761 327.761 205 325 205H75C72.2386 205 70 202.761 70 200C70 197.239 72.2386 195 75 195H325ZM325 125C327.761 125 330 127.239 330 130C330 132.761 327.761 135 325 135H75C72.2386 135 70 132.761 70 130C70 127.239 72.2386 125 75 125H325ZM325 55C327.761 55 330 57.2386 330 60C330 62.7614 327.761 65 325 65H75C72.2386 65 70 62.7614 70 60C70 57.2386 72.2386 55 75 55H325Z" fill="#DDDDDD"/>
<path d="M264.25 176.5V140.75L252.5 143.75V118.75L264.25 115.5V66.5H272V113.5L288.75 109.5V60.75H296.5V107.5L308.75 104.75V129.5L296.5 133V168.75L308.75 165.75V191.5L296.5 194.5V241.5H288.75V196.5L272 201V249.75H264.25V202.75L252.5 205.75V180L264.25 176.5ZM288.75 170.5V134.5L272 138.75V174.5L288.75 170.5Z" fill="black"/>
<path d="M288.75 170.5L272 174.5V138.75L288.75 134.5V170.5ZM273.2 139.683V172.979L287.55 169.553V136.042L273.2 139.683ZM288.75 60.75V109.5L272 113.5V66.5H264.25V115.5L252.5 118.75V143.75L264.25 140.75V176.5L252.5 180V205.75L264.25 202.75V249.75H272V201L288.75 196.5V241.5H296.5V194.5L308.75 191.5V165.75L296.5 168.75V133L308.75 129.5V104.75L296.5 107.5V60.75H288.75ZM297.7 106L309.95 103.251V130.405L297.7 133.905V167.22L309.95 164.221V192.441L297.7 195.441V242.7H287.55V198.064L273.2 201.92V250.95H263.05V204.295L251.3 207.295V179.105L263.05 175.604V142.295L251.3 145.295V117.837L263.05 114.587V65.2998H273.2V111.979L287.55 108.553V59.5498H297.7V106Z" fill="black"/>
<path d="M224.5 209V343.25H216.75V290.25L180.5 299.5V166.5H188.75V218.25L224.5 209ZM217.25 267V235L188.25 242.25V274L217.25 267Z" fill="black"/>
<path d="M180.5 166.5V299.5L216.75 290.25V343.25H224.5V209L188.75 218.25V166.5H180.5ZM217.25 267L188.25 274V242.25L217.25 235V267ZM189.45 243.187V272.476L216.05 266.056V236.536L189.45 243.187ZM189.95 216.699L225.7 207.45V344.45H215.55V291.795L179.3 301.045V165.3H189.95V216.699Z" fill="black"/>
<path d="M97.5 118.25H105.25V215.75C111.417 209.583 118.417 206.5 126.25 206.5C131.583 206.5 136.417 208.333 140.75 212C145.083 215.5 147.25 220.667 147.25 227.5C147.25 232.833 145.667 237.75 142.5 242.25C139.333 246.75 135.083 251.25 129.75 255.75L112.5 270.5C109.333 273.167 106.5 275.75 104 278.25C101.5 280.917 99.3333 283.417 97.5 285.75V118.25ZM105.25 269C109.583 264.333 113.25 260.083 116.25 256.25C119.25 252.25 121.583 248.75 123.25 245.75C125.083 242.583 126.417 239.667 127.25 237C128.25 234.333 128.75 231.833 128.75 229.5C128.75 224.833 127.667 221.5 125.5 219.5C123.333 217.333 121 216.25 118.5 216.25C115.833 216.25 113.167 217.25 110.5 219.25C108 221.083 106.25 223.667 105.25 227V269Z" fill="black"/>
<path d="M97.5 118.25V285.75C99.3333 283.417 101.5 280.917 104 278.25C106.5 275.75 109.333 273.167 112.5 270.5L129.75 255.75C134.75 251.531 138.798 247.312 141.894 243.094L142.5 242.25C145.568 237.891 147.149 233.14 147.245 227.999L147.25 227.5C147.25 220.667 145.083 215.5 140.75 212C136.552 208.448 131.885 206.616 126.749 206.505L126.25 206.5C118.417 206.5 111.417 209.583 105.25 215.75V118.25H97.5ZM127.538 228.671C127.42 224.752 126.45 222.126 124.854 220.542L124.687 220.382L124.668 220.365L124.651 220.349C122.656 218.353 120.613 217.45 118.5 217.45C116.152 217.45 113.731 218.326 111.22 220.21L111.21 220.218C108.985 221.85 107.392 224.149 106.45 227.186V265.916C109.869 262.151 112.821 258.684 115.305 255.511C118.278 251.545 120.573 248.098 122.201 245.167L122.206 245.158L122.212 245.148C124.013 242.037 125.304 239.202 126.104 236.642L126.114 236.61L126.126 236.579C127.086 234.018 127.55 231.662 127.55 229.5L127.538 228.671ZM128.744 229.939C128.686 232.146 128.188 234.5 127.25 237C126.417 239.667 125.083 242.583 123.25 245.75C121.583 248.75 119.25 252.25 116.25 256.25C113.25 260.083 109.583 264.333 105.25 269V227C106.25 223.667 108 221.083 110.5 219.25C113.167 217.25 115.833 216.25 118.5 216.25L118.967 216.263C121.291 216.39 123.469 217.469 125.5 219.5C127.667 221.5 128.75 224.833 128.75 229.5L128.744 229.939ZM106.45 212.991C112.318 207.891 118.926 205.3 126.25 205.3C131.878 205.3 136.974 207.241 141.504 211.066C146.183 214.846 148.45 220.395 148.45 227.5L148.445 228.022C148.345 233.41 146.682 238.392 143.481 242.94C140.244 247.542 135.918 252.113 130.529 256.661L113.28 271.412L113.273 271.418C110.129 274.066 107.321 276.626 104.849 279.099C102.378 281.735 100.244 284.199 98.4434 286.491L96.2998 289.22V117.05H106.45V212.991Z" fill="black"/>
</svg>
