<svg width="400" height="400" viewBox="0 0 400 400" fill="none" xmlns="http://www.w3.org/2000/svg">
<path d="M340.715 138.286C342.766 133.158 348.586 130.664 353.714 132.715C358.842 134.766 361.336 140.586 359.285 145.714L303.285 285.714C301.767 289.51 298.089 292 294 292C289.911 292 286.233 289.51 284.715 285.714L228.715 145.714C226.664 140.586 229.158 134.766 234.286 132.715C239.414 130.664 245.234 133.158 247.285 138.286L294 255.073L340.715 138.286Z" fill="black"/>
<path d="M170 197V90H60V197C60 202.523 55.5228 207 50 207C44.4772 207 40 202.523 40 197V80C40 74.4772 44.4772 70 50 70H180C185.523 70 190 74.4772 190 80V197C190 202.523 185.523 207 180 207C174.477 207 170 202.523 170 197Z" fill="black"/>
<path d="M50 80H180V116H50V80Z" fill="black"/>
<path d="M199.058 354.442C250.47 357.386 307.506 355.71 351.918 320.85C357.002 316.35 361.43 312.079 365.453 305.054C366.139 303.602 366.303 301.933 365.843 300.378C365.383 298.823 364.347 297.514 362.95 296.731C361.553 295.949 359.896 295.75 358.33 296.171C356.763 296.591 355.426 297.603 354.547 298.946C352.074 302.043 347.359 306.111 342.864 309.047C302.292 333.781 249.943 332.916 200.942 329.558C197.403 329.275 193.946 328.948 190.569 328.579C138.951 323.043 86.6795 305.047 54.7598 263.879C51.3683 259.443 48.0116 254.244 45.8994 249.935C45.2657 248.461 44.1234 247.233 42.6533 246.548C41.1836 245.862 39.5163 245.771 38.0049 246.3C36.4935 246.829 35.2469 247.939 34.5254 249.392C33.8033 250.844 33.6762 252.516 34.1006 254.064C36.2887 260.859 39.0995 266.417 42.3555 272.089C72.4191 323.074 132.23 347.748 187.856 353.431C191.512 353.83 195.245 354.168 199.058 354.442Z" fill="black"/>
</svg>
