<svg width="400" height="400" viewBox="0 0 400 400" fill="none" xmlns="http://www.w3.org/2000/svg">
<path d="M49.625 186.5C49.625 179.083 49.9583 171.708 50.625 164.375C51.2917 157.042 52.7083 150.208 54.875 143.875C57.125 137.542 60.5833 132.125 65.25 127.625C69.25 123.792 73.9167 120.667 79.25 118.25C84.6667 115.833 91.7083 114.625 100.375 114.625C109.042 114.625 116 115.833 121.25 118.25C126.5 120.667 131.167 123.833 135.25 127.75C139.833 132.333 143.25 137.792 145.5 144.125C147.75 150.375 149.208 157.167 149.875 164.5C150.542 171.75 150.875 179.083 150.875 186.5C150.875 193.917 150.542 201.25 149.875 208.5C149.208 215.667 147.75 222.417 145.5 228.75C143.25 235.083 139.833 240.5 135.25 245C131.167 249 126.458 252.25 121.125 254.75C115.875 257.167 108.917 258.375 100.25 258.375C91.6667 258.375 84.7083 257.167 79.375 254.75C74.0417 252.25 69.3333 249 65.25 245C60.6667 240.5 57.25 235.083 55 228.75C52.75 222.417 51.2917 215.667 50.625 208.5C49.9583 201.25 49.625 193.917 49.625 186.5ZM80.75 186.5C80.75 197.5 81.1667 206.583 82 213.75C82.9167 220.833 84.5417 225.917 86.875 229C89.7917 233.25 94.25 235.375 100.25 235.375C106.333 235.375 110.833 233.25 113.75 229C116.083 225.917 117.667 220.833 118.5 213.75C119.417 206.583 119.875 197.5 119.875 186.5C119.875 175.5 119.417 166.458 118.5 159.375C117.667 152.208 116.083 147.083 113.75 144C110.833 139.75 106.333 137.625 100.25 137.625C94.25 137.625 89.7917 139.75 86.875 144C84.5417 147.083 82.9167 152.208 82 159.375C81.1667 166.458 80.75 175.5 80.75 186.5Z" fill="black"/>
<path d="M200.11 142.22C201.503 142.22 203.52 142.293 206.16 142.44C208.8 142.513 210.89 142.55 212.43 142.55C212.43 140.35 212.393 138.15 212.32 135.95C212.32 133.75 212.32 131.55 212.32 129.35V94.6999C212.32 92.4999 212.467 89.8233 212.76 86.6699C213.127 83.5166 213.42 80.3266 213.64 77.0999C210.193 80.9866 206.233 84.3966 201.76 87.3299C197.287 90.1899 192.52 92.6833 187.46 94.8099C184.6 93.4899 182.18 91.3633 180.2 88.4299C178.293 85.4233 177.083 82.3066 176.57 79.0799C186.397 73.4333 194.17 67.7499 199.89 62.0299C205.683 56.3099 210.193 50.1133 213.42 43.4399C215.62 43.0733 217.857 42.8533 220.13 42.7799C222.477 42.6333 224.567 42.5599 226.4 42.5599C228.38 42.5599 230.397 42.6333 232.45 42.7799C234.577 42.8533 236.74 43.0733 238.94 43.4399V129.35C238.94 131.55 238.903 133.75 238.83 135.95C238.83 138.15 238.83 140.35 238.83 142.55C240.223 142.55 242.387 142.513 245.32 142.44C248.327 142.293 250.49 142.22 251.81 142.22H262.48C262.92 143.76 263.213 145.52 263.36 147.5C263.58 149.48 263.69 151.387 263.69 153.22C263.69 154.98 263.58 156.813 263.36 158.72C263.213 160.627 262.92 162.387 262.48 164H184.16C183.28 160.407 182.84 156.813 182.84 153.22C182.84 149.187 183.28 145.52 184.16 142.22H200.11Z" fill="black"/>
<path d="M287.595 156.87C289.812 149.903 293.992 143.918 300.135 138.915C306.278 133.848 313.752 131.315 322.555 131.315C329.648 131.315 335.792 132.74 340.985 135.59C346.242 138.377 350.295 142.208 353.145 147.085C355.995 151.962 357.42 157.503 357.42 163.71C357.42 170.423 355.457 176.408 351.53 181.665C347.603 186.922 342.98 191.703 337.66 196.01L324.265 206.84C321.352 209.12 318.628 211.463 316.095 213.87C313.562 216.213 311.852 218.335 310.965 220.235C315.525 219.602 319.958 219.127 324.265 218.81C328.572 218.493 332.087 218.335 334.81 218.335H360.65C360.65 219.475 360.618 220.932 360.555 222.705C360.492 224.478 360.365 225.967 360.175 227.17C358.972 234.517 354.127 238.19 345.64 238.19H294.625C293.105 236.923 291.332 234.897 289.305 232.11C287.278 229.323 286.265 226.758 286.265 224.415C286.265 219.728 288.323 214.757 292.44 209.5C296.557 204.18 301.243 199.272 306.5 194.775L324.075 179.765C326.988 177.422 329.332 174.888 331.105 172.165C332.878 169.442 333.765 166.497 333.765 163.33C333.765 159.91 332.593 156.965 330.25 154.495C327.97 152.025 324.93 150.79 321.13 150.79C317.077 150.79 313.593 152.215 310.68 155.065C307.83 157.852 305.677 161.113 304.22 164.85C300.99 164.723 297.792 163.9 294.625 162.38C291.458 160.86 289.115 159.023 287.595 156.87Z" fill="black"/>
<path d="M288.6 326.16C288.6 322.48 287.4 319.467 285 317.12C282.6 314.72 279.267 313.52 275 313.52C272.067 313.52 269.267 314.107 266.6 315.28C264.84 314.427 263.16 312.88 261.56 310.64C260.013 308.4 259 306.4 258.52 304.64V304.56L258.6 304.48L273.88 289.92C275.16 288.8 276.813 287.413 278.84 285.76C280.867 284.107 282.44 282.853 283.56 282L283.08 281.36C281.853 281.627 280.2 281.84 278.12 282C276.093 282.16 274.04 282.293 271.96 282.4C269.88 282.453 268.253 282.48 267.08 282.48H249.32C248.733 280.88 248.36 279.52 248.2 278.4C248.093 277.227 248.04 276.213 248.04 275.36C248.04 274.187 248.147 272.8 248.36 271.2C248.573 269.6 249.027 267.973 249.72 266.32H301C302.013 268.133 302.92 270.187 303.72 272.48C304.573 274.72 305 276.613 305 278.16C305 281.04 303.56 283.787 300.68 286.4L291 295.84C288.867 297.813 286.653 299.627 284.36 301.28C291.24 301.867 297.027 304.4 301.72 308.88C306.467 313.36 308.84 319.333 308.84 326.8C308.84 333.147 307.213 338.507 303.96 342.88C300.76 347.253 296.573 350.56 291.4 352.8C286.28 355.04 280.84 356.16 275.08 356.16C269 356.16 263.4 355.28 258.28 353.52C253.16 351.76 248.893 349.547 245.48 346.88C245.96 344.64 246.947 342.267 248.44 339.76C249.933 337.253 251.693 335.28 253.72 333.84C256.6 335.867 259.667 337.493 262.92 338.72C266.173 339.893 269.453 340.48 272.76 340.48C277.347 340.48 281.133 339.253 284.12 336.8C287.107 334.347 288.6 330.8 288.6 326.16Z" fill="black"/>
<path d="M165.695 314.432C164.705 312.812 163.85 311.102 163.13 309.302C162.455 307.457 162.117 305.837 162.117 304.442C162.117 303.227 162.365 301.967 162.86 300.662C163.4 299.357 163.917 298.187 164.412 297.152L185.135 253.21C187.745 252.805 190.512 252.962 193.437 253.682C196.407 254.402 198.68 255.46 200.255 256.855L188.51 281.29C187.25 283.9 185.607 287.14 183.582 291.01C181.602 294.835 179.712 298.3 177.912 301.405L178.25 301.945C179.87 301.765 181.692 301.607 183.717 301.472C185.787 301.337 187.677 301.247 189.387 301.202C191.142 301.112 192.38 301.067 193.1 301.067C193.055 300.437 193.032 299.83 193.032 299.245C193.032 298.66 193.032 298.232 193.032 297.962V292.225C193.032 288.625 194.022 285.677 196.002 283.382C197.982 281.087 200.615 279.94 203.9 279.94H207.882L208.49 280.615V291.212C208.49 292.607 208.445 294.25 208.355 296.14C208.31 298.03 208.287 299.672 208.287 301.067C209.052 301.067 209.952 301.045 210.987 301C212.067 300.955 212.99 300.932 213.755 300.932H218.817C218.997 301.922 219.11 302.845 219.155 303.7C219.2 304.51 219.222 305.387 219.222 306.332C219.222 307.772 219.132 309.122 218.952 310.382C218.817 311.597 218.502 312.902 218.007 314.297H213.215C212.495 314.297 211.662 314.297 210.717 314.297C209.817 314.252 209.007 314.23 208.287 314.23C208.287 315.58 208.31 316.862 208.355 318.077C208.4 319.292 208.422 320.597 208.422 321.992V328C207.027 328.27 205.722 328.427 204.507 328.472C203.292 328.562 202.077 328.607 200.862 328.607C199.647 328.607 198.365 328.562 197.015 328.472C195.71 328.427 194.382 328.27 193.032 328V321.992C193.032 320.597 193.055 319.292 193.1 318.077C193.145 316.862 193.167 315.58 193.167 314.23C191.817 314.23 190.467 314.275 189.117 314.365C187.767 314.41 186.395 314.432 185 314.432H165.695Z" fill="black"/>
</svg>
